# xmcd
# 
# Track frame offsets:
#     150
#     23242
#     43387
#     72336
#     95370
# 
# Disc length: 1536
# 
# Revision: 1
# Processed by: cddbd v1.5.2PL0 Copyright (c) Steve Scherf et al.
# Submitted via: BonkEnc v1.0.6
# 
DISCID=4005fe05
DTITLE=山下達郎 - 僕らの夏の夢
DYEAR=2009
DGENRE=JPop
TTITLE0=僕らの夏の夢
TTITLE1=ミューズ
TTITLE2=アトムの子 ('09 Live Version)
TTITLE3=僕らの夏の夢 (Original Karaoke)
TTITLE4=ミューズ (Original Karaoke)
EXTD=
EXTT0=「サマーウォーズ」 主題歌
EXTT1=「総力報道! THE NEWS」 テーマ曲
EXTT2=「週刊・手塚治虫」 テーマ曲
EXTT3=
EXTT4=
PLAYORDER=
